<svg width="383" height="149" viewBox="0 0 383 149" fill="none" xmlns="http://www.w3.org/2000/svg">
<path d="M50 42.2002C63.2 42.2002 73.2004 46.8006 80.4004 54.6006C84.4 59.0007 84.6004 67.4004 86.4004 73.2002L91.7998 71.4004C89.9998 65.8005 86.2004 58.8005 86.2002 52.6006L86.4004 45.2002H117.8V145.2H86.4004L86.2002 137C86.2003 131 89.9996 124 91.5996 118.2L86.4004 116.601C84.6005 122.4 84.4002 130.6 80.4004 135.2C73.4004 143.4 63.4 148.4 50 148.4C20.8001 148.4 0.000181082 124.4 0 94.6006C0 64.8006 20.8 42.2002 50 42.2002ZM169.285 0.200195V53C169.285 58.9998 165.285 65.7997 163.285 71.5996L168.484 73.4004C170.484 67.6005 171.285 59.4003 175.685 55.2002C182.885 47.8003 193.085 42.2003 206.484 42.2002C234.684 42.2002 255.285 67.2004 256.285 95.4004C257.485 125 236.285 148.4 206.285 148.4C192.885 148.4 182.485 143.8 175.285 136C171.085 131.8 170.685 123.4 168.685 117.8L163.484 119.4C165.484 125.2 169.285 132 169.285 138V145.2L137.885 145V0L169.285 0.200195ZM324.521 42.2002C359.72 42.2003 380.12 62.2003 381.92 86.2002H347.721C348.121 88.3998 343.92 71.5999 323.521 71.7998C310.521 71.7998 300.521 79.2004 300.521 94.4004C300.321 109.4 309.52 118.601 323.32 118.601C342.92 118.801 348.92 102.001 348.32 104H382.521C378.921 129.8 358.12 148.4 324.721 148.4C290.321 148.4 269.32 129 269.32 94.7998C269.32 60.2001 291.121 42.2002 324.521 42.2002ZM52.5996 71.4004C41.1998 71.4006 31.4004 81.2007 31.4004 94.6006C31.4006 107.8 41.1999 119.2 52.5996 119.2C63.9995 119.2 74.2 108.2 74.2002 94.6006C74.2002 81.6006 66.7996 71.4004 52.5996 71.4004ZM200.885 71.4004C185.885 71.4004 176.885 82.6 176.885 96C176.885 109.4 185.885 119.2 200.885 119.2C215.885 119.2 224.885 109.4 224.885 96C224.885 82.6 215.885 71.4004 200.885 71.4004Z" fill="black" fill-rule="evenodd"/>
</svg>
