<svg width="1075" height="221" viewBox="0 0 1075 221" fill="none" xmlns="http://www.w3.org/2000/svg">
<path d="M409.808 0C424.938 54.1824 438.399 114.855 444.64 148.667V148.657C451.26 115.006 468.45 53.9624 484.621 0H568.125V220.021H513.123V141.747C513.123 105.505 513.722 63.4131 514.782 38.042H513.482C503.112 83.814 485.811 148.937 465.45 220.021H417.479C401.738 155.558 383.727 83.2939 373.856 37.6719H372.526C374.316 63.5029 375.677 107.005 375.677 144.696V220.01H322.254V0H409.808ZM83.0332 30.2021H32.8711V87.5742H80.6533V117.766H32.8711V220.01H0V0H83.0332V30.2021ZM140.016 220.01H103.034V0H140.016V220.01ZM205.239 183.778H302.254V220.01H160.037V0H205.239V183.778ZM796.756 48.3223H653.879V84.5537H784.885V132.866H653.869V171.698H804.016V220.01H588.126V0H796.756V48.3223ZM996.104 0C1047.93 8.73141e-05 1074.65 25.5714 1074.65 64.2129C1074.65 93.2241 1060.73 110.316 1038.49 117.376C1047.69 120.996 1071.81 129.827 1071.81 170.198V181.418H1071.82C1071.82 196.838 1071.54 209.389 1074.66 220.01H994.804C991.054 210.12 990.604 201.578 990.604 177.718V170.338C990.604 147.627 982.273 141.917 949.512 141.917H898.95V220H816.756V0H996.104ZM898.939 87.5742H958.032L958.022 87.584C981.663 87.584 995.974 87.5842 995.975 70.5938C995.975 56.7531 987.294 54.6223 972.503 54.3623H898.939V87.5742Z" fill="black"/>
</svg>
